<?xml version="1.0" encoding="UTF-8"?>
<svg width="133px" height="46px" viewBox="0 0 133 46" version="1.1" xmlns="http://www.w3.org/2000/svg" xmlns:xlink="http://www.w3.org/1999/xlink">
    <!-- Generator: Sketch 41.2 (35397) - http://www.bohemiancoding.com/sketch -->
    <title>logo</title>
    <desc>Created with Sketch.</desc>
    <defs></defs>
    <g id="Page-1" stroke="none" stroke-width="1" fill="none" fill-rule="evenodd">
        <g id="landingpage" transform="translate(-51.000000, -46.000000)">
            <g id="Header" transform="translate(51.000000, 46.000000)">
                <g id="logo">
                    <g stroke-width="1" transform="translate(131.000000, 126.500000) scale(-1, 1) translate(-131.000000, -126.500000) ">
                        <path d="M9.31137377,130.904484 C9.31137377,130.904484 -24.4520575,75.4650461 36.6068706,52.8418038 L72.8400881,18.2415509 L128.52941,0 C128.52941,0 181.162009,7.60694173 201.797799,30.2243728 C222.43359,52.8418038 236.630503,61.035683 261.066859,175.918518 L184.544163,252.417969 L122.747205,230.736151 L118.266722,246.693876 L84.9507577,223.634789 L55.5167166,246.99025 L40.0703826,221.461377 L38.1061761,200.564079 L70.7015437,163.499852 C70.7015437,163.499852 84.4858568,129.219218 66.3082298,112.314257 L23.43274,118.805437 L17.0171069,143.857787 L9.31137377,130.904484 Z" id="Path-2" fill="#FC5225"></path>
                        <path d="M17,111.330094 C17,111.330094 17.3087644,99.864824 28.0772651,96.542191 C38.8457659,93.2195579 60.3909646,82.6559893 103.320149,79" id="Path-3" stroke="#C2340E" stroke-width="2" opacity="0.22826087"></path>
                    </g>
                    <path d="M331.044,155.368 C338.91,155.368 346.776,151.264 352.932,146.476 L353.274,146.476 L354.072,154 L361.71,154 L361.71,120.028 C361.71,106.234 354.414,97.228 339.252,97.228 C329.562,97.228 320.214,101.56 314.628,105.208 L318.276,111.592 C323.406,108.4 330.474,104.98 337.656,104.98 C348.372,104.98 352.134,111.364 352.362,118.888 C323.748,121.168 312.234,127.21 312.234,139.636 C312.234,149.554 320.67,155.368 331.044,155.368 Z M333.552,147.844 C327.168,147.844 321.354,145.222 321.354,138.952 C321.354,131.656 328.65,126.982 352.362,125.044 L352.362,139.636 C346.092,144.88 339.822,147.844 333.552,147.844 Z M422.844,155.368 C431.394,155.368 437.892,150.808 443.478,144.31 L443.934,144.31 L444.732,154 L452.37,154 L452.37,98.596 L443.022,98.596 L443.022,137.014 C436.866,144.196 432.192,147.274 425.808,147.274 C416.574,147.274 413.04,142.258 413.04,131.77 L413.04,98.596 L403.578,98.596 L403.578,133.024 C403.578,147.616 409.62,155.368 422.844,155.368 Z M531.515999,155.368 C538.469999,155.368 543.827999,153.886 548.843999,152.062 L546.791999,145.222 C542.801999,146.704 538.697999,147.73 533.453999,147.73 C522.737999,147.73 519.431999,142.486 519.431999,132.568 L519.431999,106.234 L546.677999,106.234 L546.677999,98.596 L519.431999,98.596 L519.431999,80.812 L511.679999,80.812 L510.425999,98.596 L494.465999,99.166 L494.465999,106.234 L510.083999,106.234 L510.083999,132.454 C510.083999,146.134 515.327999,155.368 531.515999,155.368 Z M612.599999,155.368 C627.191999,155.368 639.959999,144.766 639.959999,126.412 C639.959999,107.83 627.191999,97.228 612.599999,97.228 C598.007999,97.228 585.239999,107.83 585.239999,126.412 C585.239999,144.766 598.007999,155.368 612.599999,155.368 Z M612.599999,147.616 C601.997999,147.616 594.929999,139.066 594.929999,126.412 C594.929999,113.644 601.997999,104.98 612.599999,104.98 C623.201999,104.98 630.269999,113.644 630.269999,126.412 C630.269999,139.066 623.201999,147.616 612.599999,147.616 Z M315.996,247 L363.42,247 L363.42,238.906 L325.572,238.906 L325.572,211.774 L356.58,211.774 L356.58,203.68 L325.572,203.68 L325.572,180.196 L362.28,180.196 L362.28,172.216 L315.996,172.216 L315.996,247 Z M421.248,205.162 C423.87,196.84 426.264,188.632 428.658,179.968 L429.114,179.968 C431.394,188.632 433.902,196.84 436.524,205.162 L440.058,216.562 L417.714,216.562 L421.248,205.162 Z M398.448,247 L408.138,247 L415.32,224.2 L442.452,224.2 L449.52,247 L459.552,247 L434.358,172.216 L423.642,172.216 L398.448,247 Z M525.017999,248.368 C534.707999,248.368 542.687999,244.492 547.361999,239.704 L547.361999,208.24 L523.649999,208.24 L523.649999,216.106 L538.583999,216.106 L538.583999,235.6 C535.733999,238.336 530.831999,240.046 525.587999,240.046 C510.881999,240.046 502.559999,228.19 502.559999,209.38 C502.559999,190.798 511.793999,179.17 525.815999,179.17 C532.997999,179.17 537.443999,182.134 541.091999,186.01 L546.449999,179.968 C542.231999,175.522 535.733999,170.848 525.815999,170.848 C506.435999,170.848 492.641999,185.44 492.641999,209.608 C492.641999,234.004 506.207999,248.368 525.017999,248.368 Z M593.675999,247 L640.073999,247 L640.073999,238.906 L603.023999,238.906 L603.023999,172.216 L593.675999,172.216 L593.675999,247 Z M683.195998,247 L730.619998,247 L730.619998,238.906 L692.771998,238.906 L692.771998,211.774 L723.779998,211.774 L723.779998,203.68 L692.771998,203.68 L692.771998,180.196 L729.479998,180.196 L729.479998,172.216 L683.195998,172.216 L683.195998,247 Z" id="auto-EAGLE" fill="#FFFFFF"></path>
                </g>
            </g>
        </g>
    </g>
</svg>